<?xml version="1.0" encoding="utf-8"?>
<!-- Generator: Adobe Illustrator 28.4.1, SVG Export Plug-In . SVG Version: 6.00 Build 0)  -->
<svg version="1.1" id="Capa_1" xmlns="http://www.w3.org/2000/svg" xmlns:xlink="http://www.w3.org/1999/xlink" x="0px" y="0px"
	 viewBox="0 0 1366 768" style="enable-background:new 0 0 1366 768;" xml:space="preserve">
<style type="text/css">
	.st0{fill:none;}
	.st1{fill:#FFFFFF;}
</style>
<path class="st0" d="M356.98,412.94c-23.58,14.75-35.87,28.7-33.7,40.55c2.17,11.84,18.52,20.25,45.66,25.22
	c-2.95-10.48-5.46-21.2-7.46-32.14C359.42,435.32,357.93,424.1,356.98,412.94z"/>
<path class="st0" d="M1009.85,354.94c23.3-14.65,35.42-28.5,33.27-40.28c-2.16-11.79-18.38-20.18-45.32-25.16
	c3.04,10.71,5.61,21.67,7.66,32.86C1007.45,333.25,1008.9,344.12,1009.85,354.94z"/>
<g>
	<path class="st1" d="M323.28,453.49c-2.17-11.85,10.12-25.8,33.7-40.55c-2.57-30.21-1.15-59.99,3.82-88.75
		C198.19,380.61,94.64,445.88,103.78,495.83c9.14,49.92,128.55,72.15,299.84,64.18c-14.72-24.96-26.48-52.19-34.68-81.3
		C341.8,473.75,325.45,465.33,323.28,453.49z"/>
</g>
<g>
	<path class="st1" d="M1262.61,272.32c-9.14-49.91-128.51-72.15-299.76-64.18c14.81,24.97,26.67,52.22,34.95,81.36
		c26.94,4.97,43.16,13.36,45.32,25.16c2.16,11.78-9.97,25.63-33.27,40.28c2.67,30.21,1.35,60-3.54,88.77
		C1168.51,387.34,1271.74,322.2,1262.61,272.32z"/>
</g>
<g>
	<path class="st1" d="M403.62,560.01c68.96,116.94,202.92,183.76,340.74,157.17c137.84-26.59,239.05-138.78,261.94-273.48
		c-85.51,29.71-187.4,56.99-297.87,78.29C598.15,543.27,493.71,555.82,403.62,560.01z"/>
</g>
<g>
	<path class="st1" d="M962.85,208.13C893.75,91.67,760.08,25.22,622.57,51.74C485.07,78.26,384.03,189.96,360.8,324.19
		c85.36-29.62,186.99-56.8,297.15-78.04C768.28,224.87,872.74,212.32,962.85,208.13z"/>
</g>
<g>
	<path class="st1" d="M365.73,466.37l5.16,0.94c23.38,4.28,56.16,5.95,94.81,4.83c65.28-1.89,146.47-11.65,228.59-27.49
		c134.64-25.97,253.32-64.14,309.71-99.61l4.48-2.82c-0.82-6.61-1.81-13.24-3.02-19.87c-2.05-11.19-4.62-22.15-7.66-32.86
		c-63.86-11.79-187.97-4.35-327.77,22.62c-139.5,26.91-257.55,66.1-313.04,100.83c0.95,11.16,2.44,22.38,4.5,33.63
		C362.7,453.26,364.14,459.85,365.73,466.37z"/>
</g>
<g>
	<path class="st1" d="M696.37,456.03c-139.56,26.92-263.46,34.37-327.43,22.68c8.2,29.11,19.96,56.34,34.68,81.3
		c90.09-4.19,194.53-16.74,304.82-38.01c110.46-21.31,212.36-48.58,297.87-78.29c4.89-28.77,6.21-58.56,3.54-88.77
		C954.54,389.72,836.23,429.06,696.37,456.03z"/>
</g>
<g>
	<path class="st1" d="M670.03,312.11c139.8-26.96,263.9-34.4,327.77-22.62c-8.28-29.14-20.13-56.4-34.95-81.36
		c-90.11,4.19-194.57,16.74-304.89,38.02C547.8,267.4,446.16,294.58,360.8,324.19c-4.98,28.75-6.4,58.54-3.82,88.75
		C412.48,378.22,530.53,339.02,670.03,312.11z"/>
</g>
</svg>
