<svg id="visual" viewBox="0 0 1980 920" width="1980" height="920" xmlns="http://www.w3.org/2000/svg" xmlns:xlink="http://www.w3.org/1999/xlink" version="1.1"><rect x="0" y="0" width="1980" height="920" fill="#ffffff"></rect><defs><linearGradient id="grad1_0" x1="53.5%" y1="0%" x2="100%" y2="100%"><stop offset="6.95652173913044%" stop-color="#d20901" stop-opacity="1"></stop><stop offset="93.04347826086956%" stop-color="#d20901" stop-opacity="1"></stop></linearGradient></defs><defs><linearGradient id="grad1_1" x1="53.5%" y1="0%" x2="100%" y2="100%"><stop offset="6.95652173913044%" stop-color="#d20901" stop-opacity="1"></stop><stop offset="93.04347826086956%" stop-color="#e04529" stop-opacity="1"></stop></linearGradient></defs><defs><linearGradient id="grad1_2" x1="53.5%" y1="0%" x2="100%" y2="100%"><stop offset="6.95652173913044%" stop-color="#eb684b" stop-opacity="1"></stop><stop offset="93.04347826086956%" stop-color="#e04529" stop-opacity="1"></stop></linearGradient></defs><defs><linearGradient id="grad1_3" x1="53.5%" y1="0%" x2="100%" y2="100%"><stop offset="6.95652173913044%" stop-color="#eb684b" stop-opacity="1"></stop><stop offset="93.04347826086956%" stop-color="#f5886c" stop-opacity="1"></stop></linearGradient></defs><defs><linearGradient id="grad1_4" x1="53.5%" y1="0%" x2="100%" y2="100%"><stop offset="6.95652173913044%" stop-color="#fca68f" stop-opacity="1"></stop><stop offset="93.04347826086956%" stop-color="#f5886c" stop-opacity="1"></stop></linearGradient></defs><defs><linearGradient id="grad1_5" x1="53.5%" y1="0%" x2="100%" y2="100%"><stop offset="6.95652173913044%" stop-color="#fca68f" stop-opacity="1"></stop><stop offset="93.04347826086956%" stop-color="#ffc4b3" stop-opacity="1"></stop></linearGradient></defs><defs><linearGradient id="grad1_6" x1="53.5%" y1="0%" x2="100%" y2="100%"><stop offset="6.95652173913044%" stop-color="#ffe1d9" stop-opacity="1"></stop><stop offset="93.04347826086956%" stop-color="#ffc4b3" stop-opacity="1"></stop></linearGradient></defs><defs><linearGradient id="grad1_7" x1="53.5%" y1="0%" x2="100%" y2="100%"><stop offset="6.95652173913044%" stop-color="#ffe1d9" stop-opacity="1"></stop><stop offset="93.04347826086956%" stop-color="#ffffff" stop-opacity="1"></stop></linearGradient></defs><defs><linearGradient id="grad2_0" x1="0%" y1="0%" x2="46.5%" y2="100%"><stop offset="6.95652173913044%" stop-color="#d20901" stop-opacity="1"></stop><stop offset="93.04347826086956%" stop-color="#d20901" stop-opacity="1"></stop></linearGradient></defs><defs><linearGradient id="grad2_1" x1="0%" y1="0%" x2="46.5%" y2="100%"><stop offset="6.95652173913044%" stop-color="#e04529" stop-opacity="1"></stop><stop offset="93.04347826086956%" stop-color="#d20901" stop-opacity="1"></stop></linearGradient></defs><defs><linearGradient id="grad2_2" x1="0%" y1="0%" x2="46.5%" y2="100%"><stop offset="6.95652173913044%" stop-color="#e04529" stop-opacity="1"></stop><stop offset="93.04347826086956%" stop-color="#eb684b" stop-opacity="1"></stop></linearGradient></defs><defs><linearGradient id="grad2_3" x1="0%" y1="0%" x2="46.5%" y2="100%"><stop offset="6.95652173913044%" stop-color="#f5886c" stop-opacity="1"></stop><stop offset="93.04347826086956%" stop-color="#eb684b" stop-opacity="1"></stop></linearGradient></defs><defs><linearGradient id="grad2_4" x1="0%" y1="0%" x2="46.5%" y2="100%"><stop offset="6.95652173913044%" stop-color="#f5886c" stop-opacity="1"></stop><stop offset="93.04347826086956%" stop-color="#fca68f" stop-opacity="1"></stop></linearGradient></defs><defs><linearGradient id="grad2_5" x1="0%" y1="0%" x2="46.5%" y2="100%"><stop offset="6.95652173913044%" stop-color="#ffc4b3" stop-opacity="1"></stop><stop offset="93.04347826086956%" stop-color="#fca68f" stop-opacity="1"></stop></linearGradient></defs><defs><linearGradient id="grad2_6" x1="0%" y1="0%" x2="46.5%" y2="100%"><stop offset="6.95652173913044%" stop-color="#ffc4b3" stop-opacity="1"></stop><stop offset="93.04347826086956%" stop-color="#ffe1d9" stop-opacity="1"></stop></linearGradient></defs><defs><linearGradient id="grad2_7" x1="0%" y1="0%" x2="46.5%" y2="100%"><stop offset="6.95652173913044%" stop-color="#ffffff" stop-opacity="1"></stop><stop offset="93.04347826086956%" stop-color="#ffe1d9" stop-opacity="1"></stop></linearGradient></defs><g transform="translate(1980, 0)"><path d="M0 828C-81.1 748.2 -162.2 668.3 -264.1 637.5C-365.9 606.6 -488.4 624.8 -579.1 579.1C-669.9 533.5 -728.8 424 -765 316.9C-801.2 209.7 -814.6 104.9 -828 0L0 0Z" fill="#fff0ec"></path><path d="M0 724.5C-71 654.6 -142 584.8 -231 557.8C-320.1 530.8 -427.3 546.7 -506.7 506.7C-586.1 466.8 -637.7 371 -669.4 277.3C-701 183.5 -712.8 91.7 -724.5 0L0 0Z" fill="#ffd2c6"></path><path d="M0 621C-60.8 561.1 -121.7 501.2 -198 478.1C-274.4 455 -366.3 468.6 -434.3 434.3C-502.4 400.1 -546.6 318 -573.7 237.6C-600.9 157.3 -610.9 78.6 -621 0L0 0Z" fill="#ffb5a1"></path><path d="M0 517.5C-50.7 467.6 -101.4 417.7 -165 398.4C-228.7 379.1 -305.2 390.5 -362 362C-418.7 333.4 -455.5 265 -478.1 198C-500.7 131.1 -509.1 65.5 -517.5 0L0 0Z" fill="#f9977e"></path><path d="M0 414C-40.6 374.1 -81.1 334.2 -132 318.7C-182.9 303.3 -244.2 312.4 -289.6 289.6C-334.9 266.7 -364.4 212 -382.5 158.4C-400.6 104.9 -407.3 52.4 -414 0L0 0Z" fill="#f1785b"></path><path d="M0 310.5C-30.4 280.6 -60.8 250.6 -99 239.1C-137.2 227.5 -183.1 234.3 -217.2 217.2C-251.2 200.1 -273.3 159 -286.9 118.8C-300.4 78.6 -305.5 39.3 -310.5 0L0 0Z" fill="#e6573a"></path><path d="M0 207C-20.3 187 -40.6 167.1 -66 159.4C-91.5 151.7 -122.1 156.2 -144.8 144.8C-167.5 133.4 -182.2 106 -191.2 79.2C-200.3 52.4 -203.6 26.2 -207 0L0 0Z" fill="#d92f17"></path><path d="M0 103.5C-10.1 93.5 -20.3 83.5 -33 79.7C-45.7 75.8 -61 78.1 -72.4 72.4C-83.7 66.7 -91.1 53 -95.6 39.6C-100.1 26.2 -101.8 13.1 -103.5 0L0 0Z" fill="#d20901"></path></g><g transform="translate(0, 920)"><path d="M0 -828C78.8 -742.9 157.5 -657.8 260.2 -628.2C362.9 -598.7 489.6 -624.6 581.2 -581.2C672.9 -537.9 729.7 -425.3 765 -316.9C800.3 -208.4 814.1 -104.2 828 0L0 0Z" fill="#fff0ec"></path><path d="M0 -724.5C68.9 -650 137.8 -575.6 227.7 -549.7C317.6 -523.8 428.4 -546.5 508.6 -508.6C588.8 -470.7 638.5 -372.1 669.4 -277.3C700.2 -182.4 712.4 -91.2 724.5 0L0 0Z" fill="#ffd2c6"></path><path d="M0 -621C59.1 -557.2 118.1 -493.4 195.2 -471.2C272.2 -449 367.2 -468.4 435.9 -435.9C504.7 -403.4 547.3 -319 573.7 -237.6C600.2 -156.3 610.6 -78.2 621 0L0 0Z" fill="#ffb5a1"></path><path d="M0 -517.5C49.2 -464.3 98.5 -411.1 162.6 -392.6C226.8 -374.2 306 -390.4 363.3 -363.3C420.6 -336.2 456 -265.8 478.1 -198C500.2 -130.3 508.8 -65.1 517.5 0L0 0Z" fill="#f9977e"></path><path d="M0 -414C39.4 -371.5 78.8 -328.9 130.1 -314.1C181.5 -299.3 244.8 -312.3 290.6 -290.6C336.5 -268.9 364.8 -212.6 382.5 -158.4C400.1 -104.2 407.1 -52.1 414 0L0 0Z" fill="#f1785b"></path><path d="M0 -310.5C29.5 -278.6 59.1 -246.7 97.6 -235.6C136.1 -224.5 183.6 -234.2 218 -218C252.3 -201.7 273.6 -159.5 286.9 -118.8C300.1 -78.2 305.3 -39.1 310.5 0L0 0Z" fill="#e6573a"></path><path d="M0 -207C19.7 -185.7 39.4 -164.5 65.1 -157.1C90.7 -149.7 122.4 -156.1 145.3 -145.3C168.2 -134.5 182.4 -106.3 191.2 -79.2C200.1 -52.1 203.5 -26.1 207 0L0 0Z" fill="#d92f17"></path><path d="M0 -103.5C9.8 -92.9 19.7 -82.2 32.5 -78.5C45.4 -74.8 61.2 -78.1 72.7 -72.7C84.1 -67.2 91.2 -53.2 95.6 -39.6C100 -26.1 101.8 -13 103.5 0L0 0Z" fill="#d20901"></path></g></svg>