<svg id="visual" viewBox="0 0 1920 920" width="1920" height="920" xmlns="http://www.w3.org/2000/svg" xmlns:xlink="http://www.w3.org/1999/xlink" version="1.1"><rect x="0" y="0" width="1920" height="920" fill="#d20901"></rect><defs><linearGradient id="grad1_0" x1="52.1%" y1="0%" x2="100%" y2="100%"><stop offset="8.260869565217394%" stop-color="#ffffff" stop-opacity="1"></stop><stop offset="91.73913043478261%" stop-color="#ffffff" stop-opacity="1"></stop></linearGradient></defs><defs><linearGradient id="grad1_1" x1="52.1%" y1="0%" x2="100%" y2="100%"><stop offset="8.260869565217394%" stop-color="#ffffff" stop-opacity="1"></stop><stop offset="91.73913043478261%" stop-color="#ffdcd2" stop-opacity="1"></stop></linearGradient></defs><defs><linearGradient id="grad1_2" x1="52.1%" y1="0%" x2="100%" y2="100%"><stop offset="8.260869565217394%" stop-color="#ffbaa7" stop-opacity="1"></stop><stop offset="91.73913043478261%" stop-color="#ffdcd2" stop-opacity="1"></stop></linearGradient></defs><defs><linearGradient id="grad1_3" x1="52.1%" y1="0%" x2="100%" y2="100%"><stop offset="8.260869565217394%" stop-color="#ffbaa7" stop-opacity="1"></stop><stop offset="91.73913043478261%" stop-color="#f9977e" stop-opacity="1"></stop></linearGradient></defs><defs><linearGradient id="grad1_4" x1="52.1%" y1="0%" x2="100%" y2="100%"><stop offset="8.260869565217394%" stop-color="#ef7356" stop-opacity="1"></stop><stop offset="91.73913043478261%" stop-color="#f9977e" stop-opacity="1"></stop></linearGradient></defs><defs><linearGradient id="grad1_5" x1="52.1%" y1="0%" x2="100%" y2="100%"><stop offset="8.260869565217394%" stop-color="#ef7356" stop-opacity="1"></stop><stop offset="91.73913043478261%" stop-color="#e24b2f" stop-opacity="1"></stop></linearGradient></defs><defs><linearGradient id="grad1_6" x1="52.1%" y1="0%" x2="100%" y2="100%"><stop offset="8.260869565217394%" stop-color="#d20901" stop-opacity="1"></stop><stop offset="91.73913043478261%" stop-color="#e24b2f" stop-opacity="1"></stop></linearGradient></defs><defs><linearGradient id="grad2_0" x1="0%" y1="0%" x2="47.9%" y2="100%"><stop offset="8.260869565217394%" stop-color="#ffffff" stop-opacity="1"></stop><stop offset="91.73913043478261%" stop-color="#ffffff" stop-opacity="1"></stop></linearGradient></defs><defs><linearGradient id="grad2_1" x1="0%" y1="0%" x2="47.9%" y2="100%"><stop offset="8.260869565217394%" stop-color="#ffdcd2" stop-opacity="1"></stop><stop offset="91.73913043478261%" stop-color="#ffffff" stop-opacity="1"></stop></linearGradient></defs><defs><linearGradient id="grad2_2" x1="0%" y1="0%" x2="47.9%" y2="100%"><stop offset="8.260869565217394%" stop-color="#ffdcd2" stop-opacity="1"></stop><stop offset="91.73913043478261%" stop-color="#ffbaa7" stop-opacity="1"></stop></linearGradient></defs><defs><linearGradient id="grad2_3" x1="0%" y1="0%" x2="47.9%" y2="100%"><stop offset="8.260869565217394%" stop-color="#f9977e" stop-opacity="1"></stop><stop offset="91.73913043478261%" stop-color="#ffbaa7" stop-opacity="1"></stop></linearGradient></defs><defs><linearGradient id="grad2_4" x1="0%" y1="0%" x2="47.9%" y2="100%"><stop offset="8.260869565217394%" stop-color="#f9977e" stop-opacity="1"></stop><stop offset="91.73913043478261%" stop-color="#ef7356" stop-opacity="1"></stop></linearGradient></defs><defs><linearGradient id="grad2_5" x1="0%" y1="0%" x2="47.9%" y2="100%"><stop offset="8.260869565217394%" stop-color="#e24b2f" stop-opacity="1"></stop><stop offset="91.73913043478261%" stop-color="#ef7356" stop-opacity="1"></stop></linearGradient></defs><defs><linearGradient id="grad2_6" x1="0%" y1="0%" x2="47.9%" y2="100%"><stop offset="8.260869565217394%" stop-color="#e24b2f" stop-opacity="1"></stop><stop offset="91.73913043478261%" stop-color="#d20901" stop-opacity="1"></stop></linearGradient></defs><g transform="translate(1920, 0)"><path d="M0 828C-112.2 822.4 -224.4 816.8 -316.9 765C-409.4 713.1 -482.2 615.1 -521.8 521.8C-561.5 428.6 -568 340.3 -613.5 254.1C-659 167.9 -743.5 84 -828 0L0 0Z" fill="#da331a"></path><path d="M0 709.7C-96.2 704.9 -192.3 700.1 -271.6 655.7C-350.9 611.3 -413.3 527.2 -447.3 447.3C-481.3 367.4 -486.8 291.7 -525.8 217.8C-564.8 143.9 -637.3 72 -709.7 0L0 0Z" fill="#e96042"></path><path d="M0 591.4C-80.1 587.4 -160.3 583.4 -226.3 546.4C-292.4 509.4 -344.4 439.3 -372.7 372.7C-401.1 306.2 -405.7 243 -438.2 181.5C-470.7 120 -531.1 60 -591.4 0L0 0Z" fill="#f4856a"></path><path d="M0 473.1C-64.1 469.9 -128.2 466.7 -181.1 437.1C-233.9 407.5 -275.5 351.5 -298.2 298.2C-320.9 244.9 -324.5 194.4 -350.5 145.2C-376.5 96 -424.8 48 -473.1 0L0 0Z" fill="#fda892"></path><path d="M0 354.9C-48.1 352.5 -96.2 350.1 -135.8 327.8C-175.4 305.6 -206.7 263.6 -223.6 223.6C-240.6 183.7 -243.4 145.8 -262.9 108.9C-282.4 72 -318.6 36 -354.9 0L0 0Z" fill="#ffcbbd"></path><path d="M0 236.6C-32.1 235 -64.1 233.4 -90.5 218.6C-117 203.8 -137.8 175.7 -149.1 149.1C-160.4 122.5 -162.3 97.2 -175.3 72.6C-188.3 48 -212.4 24 -236.6 0L0 0Z" fill="#ffeee9"></path><path d="M0 118.3C-16 117.5 -32.1 116.7 -45.3 109.3C-58.5 101.9 -68.9 87.9 -74.5 74.5C-80.2 61.2 -81.1 48.6 -87.6 36.3C-94.1 24 -106.2 12 -118.3 0L0 0Z" fill="#ffffff"></path></g><g transform="translate(0, 920)"><path d="M0 -828C77.8 -747.9 155.6 -667.8 265.6 -641.2C375.6 -614.6 517.8 -641.4 585.5 -585.5C653.2 -529.5 646.4 -390.7 674.4 -279.4C702.4 -168 765.2 -84 828 0L0 0Z" fill="#da331a"></path><path d="M0 -709.7C66.7 -641.1 133.4 -572.4 227.6 -549.6C321.9 -526.8 443.8 -549.8 501.8 -501.8C559.9 -453.9 554.1 -334.9 578.1 -239.5C602.1 -144 655.9 -72 709.7 0L0 0Z" fill="#e96042"></path><path d="M0 -591.4C55.6 -534.2 111.1 -477 189.7 -458C268.3 -439 369.8 -458.2 418.2 -418.2C466.6 -378.2 461.7 -279.1 481.7 -199.5C501.7 -120 546.6 -60 591.4 0L0 0Z" fill="#f4856a"></path><path d="M0 -473.1C44.5 -427.4 88.9 -381.6 151.8 -366.4C214.6 -351.2 295.9 -366.5 334.6 -334.6C373.3 -302.6 369.4 -223.3 385.4 -159.6C401.4 -96 437.3 -48 473.1 0L0 0Z" fill="#fda892"></path><path d="M0 -354.9C33.3 -320.5 66.7 -286.2 113.8 -274.8C161 -263.4 221.9 -274.9 250.9 -250.9C279.9 -226.9 277 -167.5 289 -119.7C301 -72 328 -36 354.9 0L0 0Z" fill="#ffcbbd"></path><path d="M0 -236.6C22.2 -213.7 44.5 -190.8 75.9 -183.2C107.3 -175.6 147.9 -183.3 167.3 -167.3C186.6 -151.3 184.7 -111.6 192.7 -79.8C200.7 -48 218.6 -24 236.6 0L0 0Z" fill="#ffeee9"></path><path d="M0 -118.3C11.1 -106.8 22.2 -95.4 37.9 -91.6C53.7 -87.8 74 -91.6 83.6 -83.6C93.3 -75.6 92.3 -55.8 96.3 -39.9C100.3 -24 109.3 -12 118.3 0L0 0Z" fill="#ffffff"></path></g></svg>