<svg id="visual" viewBox="0 0 1980 920" width="1980" height="920" xmlns="http://www.w3.org/2000/svg" xmlns:xlink="http://www.w3.org/1999/xlink" version="1.1"><g><g transform="translate(922 832)"><path d="M186.5 -115.8C217.4 -54.2 201.3 26.3 162.4 78.5C123.5 130.7 61.7 154.5 15.9 145.3C-29.9 136.1 -59.8 93.9 -75.4 55.2C-90.9 16.5 -92.2 -18.8 -77.3 -71.2C-62.4 -123.6 -31.2 -193.2 23.3 -206.6C77.8 -220.1 155.7 -177.5 186.5 -115.8Z" fill="none" stroke="#ffffff" stroke-width="1"></path></g><g transform="translate(239 341)"><path d="M74.7 -51.3C93.9 -10 104.4 28.2 90.5 57.4C76.6 86.5 38.3 106.7 -6.4 110.4C-51.1 114 -102.1 101.2 -121 69.2C-139.8 37.2 -126.4 -14 -100.9 -59.1C-75.3 -104.1 -37.7 -143 -4.9 -140.2C27.8 -137.3 55.6 -92.7 74.7 -51.3Z" fill="none" stroke="#ffffff" stroke-width="1"></path></g><g transform="translate(1521 860)"><path d="M64.9 -49.6C80.8 -9.9 88.2 22.7 76 49.1C63.7 75.6 31.9 96 1.7 95C-28.5 94 -57 71.7 -77.2 40.6C-97.5 9.5 -109.6 -30.4 -95.3 -69.2C-81.1 -108 -40.5 -145.7 -8 -141.1C24.5 -136.5 49 -89.4 64.9 -49.6Z" fill="none" stroke="#ffffff" stroke-width="1"></path></g><g transform="translate(1342 285)"><path d="M85 -45.5C110.7 -4.5 132.6 42.3 117.7 70.6C102.9 98.8 51.5 108.4 -0.5 108.7C-52.5 109 -104.9 100 -119 72.1C-133.1 44.3 -108.8 -2.2 -82.6 -43.5C-56.3 -84.8 -28.2 -120.8 0.7 -121.3C29.6 -121.7 59.3 -86.5 85 -45.5Z" fill="none" stroke="#ffffff" stroke-width="1"></path></g><g transform="translate(724 77)"><path d="M106.4 -68.8C124.4 -30.3 116.1 15.9 94 47.9C71.9 79.8 35.9 97.3 1.7 96.3C-32.6 95.4 -65.2 75.9 -86.3 44.6C-107.4 13.3 -117 -29.9 -100.7 -67.5C-84.4 -105 -42.2 -136.9 1 -137.5C44.2 -138.1 88.5 -107.3 106.4 -68.8Z" fill="none" stroke="#ffffff" stroke-width="1"></path></g><g transform="translate(1961 159)"><path d="M107.6 -58.2C127.6 -27.4 124 21 102.1 53.3C80.2 85.5 40.1 101.6 -8.4 106.5C-57 111.4 -113.9 105 -142.2 69.1C-170.4 33.1 -170 -32.4 -141.5 -68.1C-113 -103.8 -56.5 -109.7 -6.4 -106C43.8 -102.3 87.5 -89.1 107.6 -58.2Z" stroke="#ffffff" fill="none" stroke-width="1"></path></g><g transform="translate(240 898)"><path d="M98.9 -49.5C121.9 -17.4 129.7 31 110.7 62C91.7 93 45.8 106.6 4.2 104.2C-37.4 101.7 -74.8 83.3 -93.4 52.5C-112 21.8 -111.7 -21.3 -93 -50.9C-74.3 -80.6 -37.2 -96.8 0.4 -97.1C38 -97.3 76 -81.6 98.9 -49.5Z" stroke="#ffffff" fill="none" stroke-width="1"></path></g></g></svg>