<svg id="visual" viewBox="0 0 1920 900" width="1920" height="900" xmlns="http://www.w3.org/2000/svg" xmlns:xlink="http://www.w3.org/1999/xlink" version="1.1"><g><g transform="translate(308 703)"><path d="M116.9 -39.6C132 8.5 111.3 66.6 70.6 95.9C29.8 125.2 -30.9 125.7 -71.1 96.7C-111.3 67.8 -131 9.4 -115.8 -38.9C-100.5 -87.2 -50.2 -125.4 0.3 -125.5C50.9 -125.6 101.8 -87.6 116.9 -39.6Z" stroke="#d20901" fill="none" stroke-width="1"></path></g><g transform="translate(1798 15)"><path d="M94 -33.2C104.7 2.4 84.4 45.4 50.8 69.8C17.2 94.1 -29.8 99.9 -61.2 78.4C-92.7 56.9 -108.7 8.2 -95.9 -30.2C-83.1 -68.7 -41.6 -96.9 0 -96.9C41.6 -96.9 83.3 -68.7 94 -33.2Z" stroke="#d20901" fill="none" stroke-width="1"></path></g><g transform="translate(1059 707)"><path d="M106.2 -36.1C117.6 0.4 92.8 47 56.2 72.6C19.5 98.1 -29.1 102.5 -60.7 80.3C-92.2 58.1 -106.8 9.4 -93.8 -29.4C-80.9 -68.1 -40.4 -96.8 3.5 -98C47.5 -99.1 94.9 -72.7 106.2 -36.1Z" stroke="#d20901" fill="none" stroke-width="1"></path></g><g transform="translate(1277 23)"><path d="M133.6 -43.8C151.6 12.2 130 80.6 84.5 112.9C38.9 145.2 -30.5 141.4 -74.9 107.9C-119.3 74.5 -138.8 11.6 -122.1 -42.4C-105.5 -96.4 -52.7 -141.5 2.5 -142.3C57.8 -143.1 115.5 -99.7 133.6 -43.8Z" stroke="#d20901" fill="none" stroke-width="1"></path></g><g transform="translate(122 217)"><path d="M75.4 -22C85.4 6.3 72.7 44.5 46.9 62.8C21.1 81.1 -17.8 79.6 -41.3 61.5C-64.8 43.3 -72.9 8.5 -63.4 -19.1C-54 -46.6 -27 -67 2.9 -67.9C32.7 -68.8 65.4 -50.3 75.4 -22Z" stroke="#d20901" fill="none" stroke-width="1"></path></g><g transform="translate(680 10)"><path d="M65.8 -21.5C74.1 4.2 62 36.4 40.2 51.3C18.4 66.2 -13 63.7 -34.2 48.1C-55.3 32.5 -66.2 3.7 -58.7 -20.7C-51.3 -45.2 -25.7 -65.3 1.5 -65.8C28.8 -66.3 57.5 -47.2 65.8 -21.5Z" stroke="#d20901" fill="none" stroke-width="1"></path></g><g transform="translate(1747 464)"><path d="M116.6 -38.1C133.7 14.7 118.1 77.9 78.9 105.8C39.7 133.6 -23.2 126.1 -62.7 95.3C-102.3 64.4 -118.4 10.4 -104.1 -38.7C-89.7 -87.8 -44.9 -131.8 2.4 -132.6C49.8 -133.4 99.5 -91 116.6 -38.1Z" stroke="#d20901" fill="none" stroke-width="1"></path></g><g transform="translate(1856 883)"><path d="M93 -28.1C107.1 13.1 95.8 64.7 64.1 87.5C32.4 110.4 -19.6 104.5 -53.2 78.8C-86.8 53.1 -102 7.5 -90.1 -30.8C-78.1 -69.1 -39.1 -100.2 0.2 -100.2C39.5 -100.3 78.9 -69.4 93 -28.1Z" stroke="#d20901" fill="none" stroke-width="1"></path></g></g></svg>