<svg id="visual" viewBox="0 0 1980 400" width="1980" height="400" xmlns="http://www.w3.org/2000/svg" xmlns:xlink="http://www.w3.org/1999/xlink" version="1.1"><rect x="0" y="0" width="1980" height="400" fill="#ffffff"></rect><path d="M0 149L47.2 136C94.3 123 188.7 97 283 93.3C377.3 89.7 471.7 108.3 566 114.7C660.3 121 754.7 115 848.8 109C943 103 1037 97 1131.2 101.7C1225.3 106.3 1319.7 121.7 1414 132.8C1508.3 144 1602.7 151 1697 159.3C1791.3 167.7 1885.7 177.3 1932.8 182.2L1980 187L1980 401L1932.8 401C1885.7 401 1791.3 401 1697 401C1602.7 401 1508.3 401 1414 401C1319.7 401 1225.3 401 1131.2 401C1037 401 943 401 848.8 401C754.7 401 660.3 401 566 401C471.7 401 377.3 401 283 401C188.7 401 94.3 401 47.2 401L0 401Z" fill="#ffdbd8"></path><path d="M0 168L47.2 178C94.3 188 188.7 208 283 205.7C377.3 203.3 471.7 178.7 566 168C660.3 157.3 754.7 160.7 848.8 161.2C943 161.7 1037 159.3 1131.2 165.3C1225.3 171.3 1319.7 185.7 1414 186.8C1508.3 188 1602.7 176 1697 182C1791.3 188 1885.7 212 1932.8 224L1980 236L1980 401L1932.8 401C1885.7 401 1791.3 401 1697 401C1602.7 401 1508.3 401 1414 401C1319.7 401 1225.3 401 1131.2 401C1037 401 943 401 848.8 401C754.7 401 660.3 401 566 401C471.7 401 377.3 401 283 401C188.7 401 94.3 401 47.2 401L0 401Z" fill="#feaea5"></path><path d="M0 242L47.2 244.8C94.3 247.7 188.7 253.3 283 258.2C377.3 263 471.7 267 566 262.8C660.3 258.7 754.7 246.3 848.8 237.8C943 229.3 1037 224.7 1131.2 227.7C1225.3 230.7 1319.7 241.3 1414 237C1508.3 232.7 1602.7 213.3 1697 207.2C1791.3 201 1885.7 208 1932.8 211.5L1980 215L1980 401L1932.8 401C1885.7 401 1791.3 401 1697 401C1602.7 401 1508.3 401 1414 401C1319.7 401 1225.3 401 1131.2 401C1037 401 943 401 848.8 401C754.7 401 660.3 401 566 401C471.7 401 377.3 401 283 401C188.7 401 94.3 401 47.2 401L0 401Z" fill="#f68172"></path><path d="M0 260L47.2 267.8C94.3 275.7 188.7 291.3 283 289.3C377.3 287.3 471.7 267.7 566 265.3C660.3 263 754.7 278 848.8 280.7C943 283.3 1037 273.7 1131.2 269.8C1225.3 266 1319.7 268 1414 264.2C1508.3 260.3 1602.7 250.7 1697 246.3C1791.3 242 1885.7 243 1932.8 243.5L1980 244L1980 401L1932.8 401C1885.7 401 1791.3 401 1697 401C1602.7 401 1508.3 401 1414 401C1319.7 401 1225.3 401 1131.2 401C1037 401 943 401 848.8 401C754.7 401 660.3 401 566 401C471.7 401 377.3 401 283 401C188.7 401 94.3 401 47.2 401L0 401Z" fill="#e7513e"></path><path d="M0 332L47.2 327.2C94.3 322.3 188.7 312.7 283 315.3C377.3 318 471.7 333 566 340.5C660.3 348 754.7 348 848.8 343.8C943 339.7 1037 331.3 1131.2 323.3C1225.3 315.3 1319.7 307.7 1414 308.2C1508.3 308.7 1602.7 317.3 1697 326.2C1791.3 335 1885.7 344 1932.8 348.5L1980 353L1980 401L1932.8 401C1885.7 401 1791.3 401 1697 401C1602.7 401 1508.3 401 1414 401C1319.7 401 1225.3 401 1131.2 401C1037 401 943 401 848.8 401C754.7 401 660.3 401 566 401C471.7 401 377.3 401 283 401C188.7 401 94.3 401 47.2 401L0 401Z" fill="#d20101"></path></svg>