<svg id="visual" viewBox="0 0 1980 400" width="1980" height="400" xmlns="http://www.w3.org/2000/svg" xmlns:xlink="http://www.w3.org/1999/xlink" version="1.1"><rect x="0" y="0" width="1980" height="400" fill="#000000"></rect><path d="M0 228L41.3 237.7C82.7 247.3 165.3 266.7 247.8 282.5C330.3 298.3 412.7 310.7 495.2 323.5C577.7 336.3 660.3 349.7 742.8 333.8C825.3 318 907.7 273 990.2 272.5C1072.7 272 1155.3 316 1237.8 336.8C1320.3 357.7 1402.7 355.3 1485.2 332.7C1567.7 310 1650.3 267 1732.8 253.7C1815.3 240.3 1897.7 256.7 1938.8 264.8L1980 273L1980 0L1938.8 0C1897.7 0 1815.3 0 1732.8 0C1650.3 0 1567.7 0 1485.2 0C1402.7 0 1320.3 0 1237.8 0C1155.3 0 1072.7 0 990.2 0C907.7 0 825.3 0 742.8 0C660.3 0 577.7 0 495.2 0C412.7 0 330.3 0 247.8 0C165.3 0 82.7 0 41.3 0L0 0Z" fill="#000000"></path><path d="M0 226L41.3 237C82.7 248 165.3 270 247.8 274C330.3 278 412.7 264 495.2 248.8C577.7 233.7 660.3 217.3 742.8 219.8C825.3 222.3 907.7 243.7 990.2 246.3C1072.7 249 1155.3 233 1237.8 229C1320.3 225 1402.7 233 1485.2 234.2C1567.7 235.3 1650.3 229.7 1732.8 218.8C1815.3 208 1897.7 192 1938.8 184L1980 176L1980 0L1938.8 0C1897.7 0 1815.3 0 1732.8 0C1650.3 0 1567.7 0 1485.2 0C1402.7 0 1320.3 0 1237.8 0C1155.3 0 1072.7 0 990.2 0C907.7 0 825.3 0 742.8 0C660.3 0 577.7 0 495.2 0C412.7 0 330.3 0 247.8 0C165.3 0 82.7 0 41.3 0L0 0Z" fill="#303030"></path><path d="M0 167L41.3 172.7C82.7 178.3 165.3 189.7 247.8 187.7C330.3 185.7 412.7 170.3 495.2 177.8C577.7 185.3 660.3 215.7 742.8 219.5C825.3 223.3 907.7 200.7 990.2 202.5C1072.7 204.3 1155.3 230.7 1237.8 236.2C1320.3 241.7 1402.7 226.3 1485.2 210.3C1567.7 194.3 1650.3 177.7 1732.8 172.7C1815.3 167.7 1897.7 174.3 1938.8 177.7L1980 181L1980 0L1938.8 0C1897.7 0 1815.3 0 1732.8 0C1650.3 0 1567.7 0 1485.2 0C1402.7 0 1320.3 0 1237.8 0C1155.3 0 1072.7 0 990.2 0C907.7 0 825.3 0 742.8 0C660.3 0 577.7 0 495.2 0C412.7 0 330.3 0 247.8 0C165.3 0 82.7 0 41.3 0L0 0Z" fill="#5e5e5e"></path><path d="M0 110L41.3 114.2C82.7 118.3 165.3 126.7 247.8 124.8C330.3 123 412.7 111 495.2 119.7C577.7 128.3 660.3 157.7 742.8 162.7C825.3 167.7 907.7 148.3 990.2 148.2C1072.7 148 1155.3 167 1237.8 161.7C1320.3 156.3 1402.7 126.7 1485.2 118.2C1567.7 109.7 1650.3 122.3 1732.8 137C1815.3 151.7 1897.7 168.3 1938.8 176.7L1980 185L1980 0L1938.8 0C1897.7 0 1815.3 0 1732.8 0C1650.3 0 1567.7 0 1485.2 0C1402.7 0 1320.3 0 1237.8 0C1155.3 0 1072.7 0 990.2 0C907.7 0 825.3 0 742.8 0C660.3 0 577.7 0 495.2 0C412.7 0 330.3 0 247.8 0C165.3 0 82.7 0 41.3 0L0 0Z" fill="#919191"></path><path d="M0 115L41.3 108.5C82.7 102 165.3 89 247.8 79.5C330.3 70 412.7 64 495.2 65.3C577.7 66.7 660.3 75.3 742.8 88.8C825.3 102.3 907.7 120.7 990.2 127.8C1072.7 135 1155.3 131 1237.8 120.5C1320.3 110 1402.7 93 1485.2 93.8C1567.7 94.7 1650.3 113.3 1732.8 114C1815.3 114.7 1897.7 97.3 1938.8 88.7L1980 80L1980 0L1938.8 0C1897.7 0 1815.3 0 1732.8 0C1650.3 0 1567.7 0 1485.2 0C1402.7 0 1320.3 0 1237.8 0C1155.3 0 1072.7 0 990.2 0C907.7 0 825.3 0 742.8 0C660.3 0 577.7 0 495.2 0C412.7 0 330.3 0 247.8 0C165.3 0 82.7 0 41.3 0L0 0Z" fill="#c6c6c6"></path><path d="M0 52L41.3 46.7C82.7 41.3 165.3 30.7 247.8 35.8C330.3 41 412.7 62 495.2 65.3C577.7 68.7 660.3 54.3 742.8 56.5C825.3 58.7 907.7 77.3 990.2 81.5C1072.7 85.7 1155.3 75.3 1237.8 64.3C1320.3 53.3 1402.7 41.7 1485.2 45.8C1567.7 50 1650.3 70 1732.8 74C1815.3 78 1897.7 66 1938.8 60L1980 54L1980 0L1938.8 0C1897.7 0 1815.3 0 1732.8 0C1650.3 0 1567.7 0 1485.2 0C1402.7 0 1320.3 0 1237.8 0C1155.3 0 1072.7 0 990.2 0C907.7 0 825.3 0 742.8 0C660.3 0 577.7 0 495.2 0C412.7 0 330.3 0 247.8 0C165.3 0 82.7 0 41.3 0L0 0Z" fill="#ffffff"></path></svg>