<svg id="visual" viewBox="0 0 1920 900" width="1920" height="900" xmlns="http://www.w3.org/2000/svg" xmlns:xlink="http://www.w3.org/1999/xlink" version="1.1"><path d="M0 629L45.7 635.8C91.3 642.7 182.7 656.3 274.2 653.8C365.7 651.3 457.3 632.7 548.8 621.7C640.3 610.7 731.7 607.3 823 598C914.3 588.7 1005.7 573.3 1097 581C1188.3 588.7 1279.7 619.3 1371.2 632.3C1462.7 645.3 1554.3 640.7 1645.8 630.8C1737.3 621 1828.7 606 1874.3 598.5L1920 591L1920 901L1874.3 901C1828.7 901 1737.3 901 1645.8 901C1554.3 901 1462.7 901 1371.2 901C1279.7 901 1188.3 901 1097 901C1005.7 901 914.3 901 823 901C731.7 901 640.3 901 548.8 901C457.3 901 365.7 901 274.2 901C182.7 901 91.3 901 45.7 901L0 901Z" fill="#f0f0f0"></path><path d="M0 636L45.7 645.3C91.3 654.7 182.7 673.3 274.2 687.3C365.7 701.3 457.3 710.7 548.8 710.2C640.3 709.7 731.7 699.3 823 689.5C914.3 679.7 1005.7 670.3 1097 659.2C1188.3 648 1279.7 635 1371.2 623.8C1462.7 612.7 1554.3 603.3 1645.8 611.8C1737.3 620.3 1828.7 646.7 1874.3 659.8L1920 673L1920 901L1874.3 901C1828.7 901 1737.3 901 1645.8 901C1554.3 901 1462.7 901 1371.2 901C1279.7 901 1188.3 901 1097 901C1005.7 901 914.3 901 823 901C731.7 901 640.3 901 548.8 901C457.3 901 365.7 901 274.2 901C182.7 901 91.3 901 45.7 901L0 901Z" fill="#ececec"></path><path d="M0 752L45.7 737.7C91.3 723.3 182.7 694.7 274.2 682.5C365.7 670.3 457.3 674.7 548.8 675C640.3 675.3 731.7 671.7 823 686.2C914.3 700.7 1005.7 733.3 1097 741.3C1188.3 749.3 1279.7 732.7 1371.2 716C1462.7 699.3 1554.3 682.7 1645.8 673.2C1737.3 663.7 1828.7 661.3 1874.3 660.2L1920 659L1920 901L1874.3 901C1828.7 901 1737.3 901 1645.8 901C1554.3 901 1462.7 901 1371.2 901C1279.7 901 1188.3 901 1097 901C1005.7 901 914.3 901 823 901C731.7 901 640.3 901 548.8 901C457.3 901 365.7 901 274.2 901C182.7 901 91.3 901 45.7 901L0 901Z" fill="#e9e9e9"></path><path d="M0 747L45.7 754.7C91.3 762.3 182.7 777.7 274.2 786.2C365.7 794.7 457.3 796.3 548.8 789C640.3 781.7 731.7 765.3 823 753.2C914.3 741 1005.7 733 1097 738C1188.3 743 1279.7 761 1371.2 761C1462.7 761 1554.3 743 1645.8 744.5C1737.3 746 1828.7 767 1874.3 777.5L1920 788L1920 901L1874.3 901C1828.7 901 1737.3 901 1645.8 901C1554.3 901 1462.7 901 1371.2 901C1279.7 901 1188.3 901 1097 901C1005.7 901 914.3 901 823 901C731.7 901 640.3 901 548.8 901C457.3 901 365.7 901 274.2 901C182.7 901 91.3 901 45.7 901L0 901Z" fill="#e1e1e1"></path><path d="M0 860L45.7 859.2C91.3 858.3 182.7 856.7 274.2 846.8C365.7 837 457.3 819 548.8 807.8C640.3 796.7 731.7 792.3 823 795.3C914.3 798.3 1005.7 808.7 1097 819.3C1188.3 830 1279.7 841 1371.2 841.5C1462.7 842 1554.3 832 1645.8 827.5C1737.3 823 1828.7 824 1874.3 824.5L1920 825L1920 901L1874.3 901C1828.7 901 1737.3 901 1645.8 901C1554.3 901 1462.7 901 1371.2 901C1279.7 901 1188.3 901 1097 901C1005.7 901 914.3 901 823 901C731.7 901 640.3 901 548.8 901C457.3 901 365.7 901 274.2 901C182.7 901 91.3 901 45.7 901L0 901Z" fill="#d9d9d9"></path></svg>