<svg id="visual" viewBox="0 0 1920 920" width="1920" height="920" xmlns="http://www.w3.org/2000/svg" xmlns:xlink="http://www.w3.org/1999/xlink" version="1.1"><path d="M0 148L29.2 140.3C58.3 132.7 116.7 117.3 174.8 103.5C233 89.7 291 77.3 349.2 74.3C407.3 71.3 465.7 77.7 523.8 82.3C582 87 640 90 698.2 85.3C756.3 80.7 814.7 68.3 872.8 66.8C931 65.3 989 74.7 1047.2 87C1105.3 99.3 1163.7 114.7 1221.8 116.2C1280 117.7 1338 105.3 1396.2 108.3C1454.3 111.3 1512.7 129.7 1570.8 123.5C1629 117.3 1687 86.7 1745.2 80.5C1803.3 74.3 1861.7 92.7 1890.8 101.8L1920 111L1920 0L1890.8 0C1861.7 0 1803.3 0 1745.2 0C1687 0 1629 0 1570.8 0C1512.7 0 1454.3 0 1396.2 0C1338 0 1280 0 1221.8 0C1163.7 0 1105.3 0 1047.2 0C989 0 931 0 872.8 0C814.7 0 756.3 0 698.2 0C640 0 582 0 523.8 0C465.7 0 407.3 0 349.2 0C291 0 233 0 174.8 0C116.7 0 58.3 0 29.2 0L0 0Z" fill="#eeeeee"></path><path d="M0 240L29.2 252.3C58.3 264.7 116.7 289.3 174.8 307.8C233 326.3 291 338.7 349.2 326.3C407.3 314 465.7 277 523.8 254C582 231 640 222 698.2 228.2C756.3 234.3 814.7 255.7 872.8 266.3C931 277 989 277 1047.2 267.8C1105.3 258.7 1163.7 240.3 1221.8 246.5C1280 252.7 1338 283.3 1396.2 286.3C1454.3 289.3 1512.7 264.7 1570.8 255.5C1629 246.3 1687 252.7 1745.2 261.8C1803.3 271 1861.7 283 1890.8 289L1920 295L1920 109L1890.8 99.8C1861.7 90.7 1803.3 72.3 1745.2 78.5C1687 84.7 1629 115.3 1570.8 121.5C1512.7 127.7 1454.3 109.3 1396.2 106.3C1338 103.3 1280 115.7 1221.8 114.2C1163.7 112.7 1105.3 97.3 1047.2 85C989 72.7 931 63.3 872.8 64.8C814.7 66.3 756.3 78.7 698.2 83.3C640 88 582 85 523.8 80.3C465.7 75.7 407.3 69.3 349.2 72.3C291 75.3 233 87.7 174.8 101.5C116.7 115.3 58.3 130.7 29.2 138.3L0 146Z" fill="#f6f6f6"></path><path d="M0 673L29.2 663.7C58.3 654.3 116.7 635.7 174.8 631C233 626.3 291 635.7 349.2 606.7C407.3 577.7 465.7 510.3 523.8 501.2C582 492 640 541 698.2 537.8C756.3 534.7 814.7 479.3 872.8 473.2C931 467 989 510 1047.2 503.8C1105.3 497.7 1163.7 442.3 1221.8 454.7C1280 467 1338 547 1396.2 560.8C1454.3 574.7 1512.7 522.3 1570.8 507C1629 491.7 1687 513.3 1745.2 513.3C1803.3 513.3 1861.7 491.7 1890.8 480.8L1920 470L1920 293L1890.8 287C1861.7 281 1803.3 269 1745.2 259.8C1687 250.7 1629 244.3 1570.8 253.5C1512.7 262.7 1454.3 287.3 1396.2 284.3C1338 281.3 1280 250.7 1221.8 244.5C1163.7 238.3 1105.3 256.7 1047.2 265.8C989 275 931 275 872.8 264.3C814.7 253.7 756.3 232.3 698.2 226.2C640 220 582 229 523.8 252C465.7 275 407.3 312 349.2 324.3C291 336.7 233 324.3 174.8 305.8C116.7 287.3 58.3 262.7 29.2 250.3L0 238Z" fill="#ffffff"></path><path d="M0 765L29.2 765C58.3 765 116.7 765 174.8 755.7C233 746.3 291 727.7 349.2 697C407.3 666.3 465.7 623.7 523.8 620.7C582 617.7 640 654.3 698.2 662C756.3 669.7 814.7 648.3 872.8 645.3C931 642.3 989 657.7 1047.2 648.3C1105.3 639 1163.7 605 1221.8 624.8C1280 644.7 1338 718.3 1396.2 727.7C1454.3 737 1512.7 682 1570.8 668.2C1629 654.3 1687 681.7 1745.2 670.8C1803.3 660 1861.7 611 1890.8 586.5L1920 562L1920 468L1890.8 478.8C1861.7 489.7 1803.3 511.3 1745.2 511.3C1687 511.3 1629 489.7 1570.8 505C1512.7 520.3 1454.3 572.7 1396.2 558.8C1338 545 1280 465 1221.8 452.7C1163.7 440.3 1105.3 495.7 1047.2 501.8C989 508 931 465 872.8 471.2C814.7 477.3 756.3 532.7 698.2 535.8C640 539 582 490 523.8 499.2C465.7 508.3 407.3 575.7 349.2 604.7C291 633.7 233 624.3 174.8 629C116.7 633.7 58.3 652.3 29.2 661.7L0 671Z" fill="#ffffff"></path><path d="M0 921L29.2 921C58.3 921 116.7 921 174.8 921C233 921 291 921 349.2 921C407.3 921 465.7 921 523.8 921C582 921 640 921 698.2 921C756.3 921 814.7 921 872.8 921C931 921 989 921 1047.2 921C1105.3 921 1163.7 921 1221.8 921C1280 921 1338 921 1396.2 921C1454.3 921 1512.7 921 1570.8 921C1629 921 1687 921 1745.2 921C1803.3 921 1861.7 921 1890.8 921L1920 921L1920 560L1890.8 584.5C1861.7 609 1803.3 658 1745.2 668.8C1687 679.7 1629 652.3 1570.8 666.2C1512.7 680 1454.3 735 1396.2 725.7C1338 716.3 1280 642.7 1221.8 622.8C1163.7 603 1105.3 637 1047.2 646.3C989 655.7 931 640.3 872.8 643.3C814.7 646.3 756.3 667.7 698.2 660C640 652.3 582 615.7 523.8 618.7C465.7 621.7 407.3 664.3 349.2 695C291 725.7 233 744.3 174.8 753.7C116.7 763 58.3 763 29.2 763L0 763Z" fill="#ffffff"></path></svg>