<svg id="visual" viewBox="0 0 1920 920" width="1920" height="920" xmlns="http://www.w3.org/2000/svg" xmlns:xlink="http://www.w3.org/1999/xlink" version="1.1"><g fill="none" stroke="#d20901" stroke-width="4"><path d="M60.4 34.9L60.4 155.8L-60.4 155.8L-60.4 34.9L-165.1 -25.5L-104.7 -130.2L0 -69.8L104.7 -130.2L165.1 -25.5Z" transform="translate(1436 3)"></path><path d="M26.4 15.3L26.4 68.2L-26.4 68.2L-26.4 15.3L-72.3 -11.2L-45.8 -57L0 -30.5L45.8 -57L72.3 -11.2Z" transform="translate(1481 874)"></path><path d="M51.3 29.6L51.3 132.1L-51.3 132.1L-51.3 29.6L-140.1 -21.7L-88.8 -110.5L0 -59.2L88.8 -110.5L140.1 -21.7Z" transform="translate(1695 377)"></path><path d="M38.6 22.3L38.6 99.5L-38.6 99.5L-38.6 22.3L-105.4 -16.3L-66.8 -83.1L0 -44.6L66.8 -83.1L105.4 -16.3Z" transform="translate(944 610)"></path><path d="M31 17.9L31 80L-31 80L-31 17.9L-84.8 -13.1L-53.8 -66.9L0 -35.8L53.8 -66.9L84.8 -13.1Z" transform="translate(131 488)"></path><path d="M47.2 27.3L47.2 121.7L-47.2 121.7L-47.2 27.3L-129 -20L-81.8 -101.8L0 -54.5L81.8 -101.8L129 -20Z" transform="translate(530 245)"></path></g></svg>